<svg  xmlns="http://www.w3.org/2000/svg" xmlns:xlink="http://www.w3.org/1999/xlink" xmlns:a="http://ns.adobe.com/AdobeSVGViewerExtensions/3.0/"
	 width="542" height="258" viewBox="0 0 542 258" overflow="visible" enable-background="new 0 0 542 258" xml:space="preserve">
	<g id="Layer_1">
		<g id="Layer_1_1_">
			<path fill="#FFFCF3" d="M542,258H0V0h542V258z"/>
			<path fill="#FFFFFF" stroke="#000000" stroke-width="0.5" stroke-dasharray="6 3" d="M8.875,152.75h509.617"/>
			<path fill="#FFFFFF" stroke="#000000" stroke-width="0.25" d="M219.801,43.691v203.526"/>
			<path fill="#FFFFFF" stroke="#000000" stroke-width="0.25" d="M32.375,22.09v225.127"/>
			<path fill="#FFFFFF" stroke="#000000" stroke-width="0.25" d="M435.797,43.691v203.526"/>
			<path fill="#FFFFFF" stroke="#000000" stroke-width="0.25" d="M497.661,22.09v225.127"/>
			<path opacity="0.75" fill="#CCE2EF" stroke="#000000" stroke-width="0.75" enable-background="new    " d="M311.326,150.479
				c0,29.422,4.329,57.828,12.342,84.645h8.656c7.582-26.146,11.666-53.781,11.666-82.373c0-28.593-4.088-56.225-11.674-82.372
				h-9.979C315.174,95.852,311.326,122.713,311.326,150.479z"/>
			<g>
				<g>
					<path d="M219.801,53.601l7.251-2.25v4.5L219.801,53.601z"/>
					<path d="M227.052,53.601"/>
				</g>
				<path fill="none" stroke="#000000" stroke-width="0.5" stroke-linecap="square" d="M227.052,53.601h40.987"/>
			</g>
			<g>
				<g>
					<path d="M32.375,28.401l7.251-2.25v4.5L32.375,28.401z"/>
					<path d="M39.626,28.401"/>
				</g>
				<path fill="none" stroke="#000000" stroke-width="0.5" stroke-linecap="square" d="M39.626,28.401h109.387"/>
			</g>
			<g>
				<g>
					<path d="M327.797,28.401l-7.251-2.25v4.5L327.797,28.401z"/>
					<path d="M320.546,28.401"/>
				</g>
				<path fill="none" stroke="#000000" stroke-width="0.5" stroke-linecap="square" d="M320.546,28.401H167.962"/>
			</g>
			<g>
				<g>
					<path d="M497.661,28.401l-7.251-2.25v4.5L497.661,28.401z"/>
					<path d="M490.41,28.401"/>
				</g>
				<path fill="none" stroke="#000000" stroke-width="0.5" stroke-linecap="square" d="M490.41,28.401h-69.781"/>
			</g>
			<g>
				<g>
					<path d="M327.797,53.602l-7.251-2.25v4.5L327.797,53.602z"/>
					<path d="M320.546,53.602"/>
				</g>
				<path fill="none" stroke="#000000" stroke-width="0.5" stroke-linecap="square" d="M320.546,53.602h-40.983"/>
			</g>
			<g>
				<g>
					<path d="M435.797,53.601l-7.251-2.25v4.5L435.797,53.601z"/>
					<path d="M428.546,53.601"/>
				</g>
				<path fill="none" stroke="#000000" stroke-width="0.5" stroke-linecap="square" d="M428.546,53.601h-40.982"/>
			</g>
			<g>
				<g>
					<path d="M327.797,53.601l7.251-2.25v4.5L327.797,53.601z"/>
					<path d="M335.048,53.601"/>
				</g>
				<path fill="none" stroke="#000000" stroke-width="0.5" stroke-linecap="square" d="M335.048,53.601h40.983"/>
			</g>
			<g>
				<g>
					<path d="M327.797,28.401l7.251-2.25v4.5L327.797,28.401z"/>
					<path d="M335.048,28.401"/>
				</g>
				<path fill="none" stroke="#000000" stroke-width="0.5" stroke-linecap="square" d="M335.048,28.401h66.181"/>
			</g>
			<g>
				<g>
					<path fill="#008837" d="M32.375,87.593L35.75,98.47H29L32.375,87.593z"/>
					<path d="M32.375,98.47"/>
				</g>
				<path fill="#078936" stroke="#33A02C" stroke-width="2" stroke-linecap="square" d="M32.375,98.47v54.28"/>
			</g>
			<g>
				<g>
					<path fill="#008837" d="M497.661,190.074l-1.822-5.874h3.646L497.661,190.074z"/>
					<path d="M497.661,184.2"/>
				</g>
				<path fill="#078936" stroke="#33A02C" stroke-width="2" stroke-linecap="square" d="M497.661,184.2v-30.568"/>
			</g>
			<path fill="none" stroke="#FF0000" d="M32.375,87.593h285.677l20.035,6.208L517.313,201.93"/>
			<path stroke="#FF0000" d="M327.733,152.646l192.407,42.377"/>
			<path fill="#FFFFFF" stroke="#000000" stroke-width="0.25" d="M327.797,22.09v225.127"/>
			<path fill="none" stroke="#FF0000" d="M517.661,190.074H341.645l-28.304-4.996l-93.54-32.328L32.375,87.593"/>
			<path fill="none" stroke="#FF0000" d="M32.375,87.593l295.358,65.054"/>
			<g>
				<path d="M276.375,51.919l-0.123,0.453h-0.996l-0.836,3.02c-0.365,1.308-0.72,2.321-1.061,3.041
					c-0.482,1.016-1.002,1.717-1.558,2.105c-0.423,0.296-0.846,0.444-1.269,0.444c-0.276,0-0.51-0.083-0.704-0.247
					c-0.142-0.114-0.213-0.263-0.213-0.446c0-0.146,0.059-0.273,0.175-0.38c0.118-0.107,0.261-0.161,0.431-0.161
					c0.124,0,0.229,0.039,0.313,0.117c0.085,0.077,0.127,0.167,0.127,0.268c0,0.101-0.05,0.194-0.151,0.281
					c-0.076,0.064-0.115,0.112-0.115,0.144c0,0.041,0.016,0.073,0.048,0.096c0.041,0.032,0.105,0.048,0.191,0.048
					c0.196,0,0.402-0.062,0.619-0.185c0.216-0.124,0.409-0.309,0.577-0.553c0.169-0.246,0.328-0.599,0.479-1.062
					c0.066-0.191,0.248-0.819,0.543-1.885l1.32-4.643h-1.338l0.1-0.453c0.422,0,0.717-0.026,0.887-0.079
					c0.168-0.052,0.322-0.152,0.462-0.3c0.141-0.147,0.307-0.424,0.499-0.828c0.257-0.545,0.504-0.968,0.74-1.268
					c0.322-0.404,0.662-0.708,1.018-0.91c0.355-0.202,0.691-0.303,1.006-0.303c0.332,0,0.598,0.087,0.799,0.261
					c0.201,0.174,0.301,0.363,0.301,0.566c0,0.158-0.053,0.292-0.158,0.4c-0.106,0.108-0.241,0.163-0.406,0.163
					c-0.143,0-0.258-0.041-0.348-0.123s-0.135-0.179-0.135-0.293c0-0.072,0.031-0.162,0.094-0.269
					c0.063-0.107,0.095-0.178,0.095-0.214c0-0.063-0.019-0.111-0.056-0.143c-0.055-0.045-0.133-0.068-0.236-0.068
					c-0.262,0-0.495,0.094-0.702,0.282c-0.278,0.25-0.526,0.64-0.746,1.171c-0.112,0.278-0.338,0.929-0.678,1.953H276.375z"/>
			</g>
			<g>
				<path d="M153.344,33.203l0.75-3.438h0.25c-0.032,0.333-0.048,0.608-0.048,0.827c0,0.624,0.199,1.132,0.598,1.523
					c0.399,0.391,0.919,0.587,1.562,0.587c0.597,0,1.05-0.183,1.36-0.549c0.31-0.366,0.465-0.788,0.465-1.266
					c0-0.309-0.071-0.591-0.213-0.845c-0.216-0.377-0.791-1.042-1.726-1.992c-0.454-0.454-0.745-0.793-0.873-1.016
					c-0.208-0.368-0.313-0.755-0.313-1.159c0-0.646,0.243-1.198,0.729-1.657c0.486-0.459,1.109-0.688,1.87-0.688
					c0.256,0,0.499,0.025,0.729,0.076c0.142,0.028,0.401,0.12,0.777,0.277c0.266,0.106,0.413,0.164,0.44,0.173
					c0.064,0.014,0.135,0.021,0.213,0.021c0.133,0,0.248-0.034,0.344-0.104c0.096-0.07,0.208-0.217,0.337-0.443h0.25l-0.719,3.078
					h-0.25c0.018-0.274,0.027-0.495,0.027-0.664c0-0.552-0.183-1.004-0.547-1.355c-0.365-0.352-0.846-0.527-1.443-0.527
					c-0.474,0-0.859,0.139-1.156,0.416c-0.297,0.277-0.444,0.598-0.444,0.962c0,0.318,0.095,0.622,0.286,0.91
					c0.19,0.289,0.628,0.76,1.314,1.412c0.686,0.652,1.129,1.161,1.332,1.527c0.202,0.366,0.303,0.756,0.303,1.17
					c0,0.468-0.125,0.922-0.374,1.361s-0.606,0.779-1.072,1.021c-0.466,0.241-0.976,0.361-1.528,0.361
					c-0.274,0-0.53-0.025-0.767-0.075c-0.238-0.05-0.617-0.173-1.138-0.369c-0.178-0.068-0.326-0.103-0.445-0.103
					c-0.27,0-0.48,0.183-0.63,0.547L153.344,33.203z"/>
				<path d="M164.82,29.578l-1.732,6.012c-0.1,0.357-0.15,0.615-0.15,0.773c0,0.134,0.046,0.235,0.137,0.306
					c0.091,0.071,0.305,0.118,0.642,0.144L163.663,37h-2.757l0.075-0.188c0.293-0.007,0.487-0.03,0.58-0.07
					c0.15-0.065,0.263-0.151,0.338-0.26c0.118-0.166,0.238-0.464,0.36-0.893l1.246-4.324c0.075-0.262,0.116-0.412,0.124-0.452
					c0.011-0.072,0.016-0.141,0.016-0.209c0-0.125-0.034-0.224-0.102-0.296c-0.068-0.071-0.162-0.107-0.28-0.107
					c-0.094,0-0.239,0.021-0.438,0.064l-0.07-0.188l1.807-0.5L164.82,29.578z"/>
			</g>
			<g>
				<path d="M404.844,33.203l0.75-3.438h0.25c-0.031,0.333-0.048,0.608-0.048,0.827c0,0.624,0.199,1.132,0.599,1.523
					c0.398,0.392,0.92,0.587,1.563,0.587c0.597,0,1.05-0.183,1.36-0.549c0.31-0.366,0.465-0.788,0.465-1.266
					c0-0.309-0.071-0.591-0.213-0.845c-0.217-0.377-0.791-1.042-1.728-1.992c-0.453-0.454-0.744-0.793-0.873-1.016
					c-0.208-0.368-0.313-0.755-0.313-1.159c0-0.646,0.242-1.198,0.729-1.657s1.109-0.688,1.87-0.688
					c0.257,0,0.499,0.025,0.729,0.076c0.142,0.028,0.4,0.12,0.775,0.277c0.267,0.106,0.413,0.164,0.44,0.173
					c0.063,0.014,0.135,0.021,0.213,0.021c0.133,0,0.247-0.034,0.344-0.104c0.098-0.07,0.208-0.217,0.337-0.443h0.25l-0.719,3.078
					h-0.25c0.018-0.274,0.027-0.495,0.027-0.664c0-0.552-0.184-1.004-0.547-1.355c-0.365-0.352-0.847-0.527-1.443-0.527
					c-0.474,0-0.859,0.139-1.155,0.416s-0.443,0.598-0.443,0.962c0,0.318,0.096,0.622,0.284,0.91c0.191,0.289,0.63,0.76,1.314,1.412
					c0.687,0.652,1.13,1.161,1.332,1.527c0.201,0.366,0.303,0.756,0.303,1.17c0,0.468-0.125,0.922-0.373,1.361
					c-0.25,0.439-0.605,0.779-1.071,1.021c-0.467,0.241-0.977,0.361-1.527,0.361c-0.274,0-0.53-0.025-0.769-0.075
					c-0.237-0.05-0.616-0.173-1.138-0.369c-0.178-0.068-0.326-0.103-0.444-0.103c-0.27,0-0.479,0.183-0.631,0.547L404.844,33.203z"
					/>
				<path d="M415.563,37h-3.642v-0.199c1.842-1.618,3.06-2.887,3.65-3.807c0.273-0.426,0.412-0.874,0.412-1.342
					c0-0.372-0.114-0.676-0.343-0.91c-0.229-0.234-0.522-0.352-0.887-0.352c-0.503,0-0.916,0.245-1.24,0.734l-0.188-0.086
					c0.183-0.462,0.449-0.821,0.801-1.077s0.73-0.384,1.139-0.384c0.463,0,0.852,0.158,1.166,0.474
					c0.314,0.316,0.474,0.699,0.474,1.149c0,0.314-0.058,0.605-0.169,0.873c-0.175,0.418-0.495,0.886-0.962,1.403
					c-0.699,0.795-1.634,1.709-2.8,2.741h1.853c0.291,0,0.531-0.061,0.72-0.183c0.189-0.122,0.323-0.285,0.405-0.489h0.219
					L415.563,37z"/>
			</g>
			<g>
				<path d="M384.375,51.919l-0.123,0.453h-0.995l-0.836,3.02c-0.366,1.308-0.72,2.321-1.06,3.041
					c-0.482,1.016-1.002,1.717-1.56,2.105c-0.422,0.296-0.846,0.444-1.268,0.444c-0.276,0-0.511-0.083-0.704-0.247
					c-0.142-0.114-0.214-0.263-0.214-0.446c0-0.146,0.059-0.273,0.176-0.38c0.117-0.107,0.261-0.161,0.431-0.161
					c0.124,0,0.229,0.039,0.313,0.117c0.085,0.077,0.127,0.167,0.127,0.268c0,0.101-0.05,0.194-0.15,0.281
					c-0.075,0.064-0.114,0.112-0.114,0.144c0,0.041,0.017,0.073,0.049,0.096c0.041,0.032,0.104,0.048,0.19,0.048
					c0.195,0,0.401-0.062,0.618-0.185c0.216-0.124,0.409-0.309,0.577-0.553c0.169-0.246,0.328-0.599,0.479-1.062
					c0.066-0.191,0.249-0.819,0.544-1.885l1.319-4.643h-1.338l0.1-0.453c0.423,0,0.719-0.026,0.887-0.079
					c0.168-0.052,0.322-0.152,0.462-0.3c0.141-0.147,0.307-0.424,0.499-0.828c0.257-0.545,0.504-0.968,0.74-1.268
					c0.321-0.404,0.662-0.708,1.018-0.91c0.356-0.202,0.691-0.303,1.006-0.303c0.332,0,0.599,0.087,0.799,0.261
					c0.201,0.174,0.302,0.363,0.302,0.566c0,0.158-0.054,0.292-0.158,0.4c-0.105,0.108-0.241,0.163-0.406,0.163
					c-0.143,0-0.258-0.041-0.348-0.123s-0.135-0.179-0.135-0.293c0-0.072,0.03-0.162,0.094-0.269
					c0.063-0.107,0.094-0.178,0.094-0.214c0-0.063-0.019-0.111-0.056-0.143c-0.055-0.045-0.133-0.068-0.236-0.068
					c-0.261,0-0.495,0.094-0.702,0.282c-0.276,0.25-0.525,0.64-0.746,1.171c-0.11,0.278-0.338,0.929-0.678,1.953H384.375z"/>
			</g>
			<g>
				<path d="M46.238,137.198c0.616,0,1.162,0.133,1.637,0.399s0.847,0.659,1.117,1.18s0.404,1.061,0.404,1.619
					c0,0.992-0.289,2.033-0.867,3.121c-0.578,1.09-1.332,1.92-2.264,2.493c-0.932,0.573-1.896,0.859-2.891,0.859
					c-0.717,0-1.316-0.158-1.798-0.474s-0.838-0.733-1.068-1.252c-0.231-0.518-0.346-1.021-0.346-1.506
					c0-0.865,0.208-1.719,0.626-2.563s0.917-1.549,1.497-2.114s1.199-1.001,1.856-1.306
					C44.798,137.352,45.498,137.198,46.238,137.198z M45.998,137.635c-0.46,0-0.911,0.113-1.35,0.338
					c-0.439,0.226-0.876,0.594-1.309,1.104c-0.433,0.511-0.822,1.181-1.167,2.008c-0.424,1.019-0.635,1.979-0.635,2.885
					c0,0.646,0.168,1.218,0.504,1.716s0.852,0.746,1.547,0.746c0.419,0,0.83-0.102,1.232-0.307c0.403-0.204,0.823-0.555,1.26-1.05
					c0.548-0.623,1.008-1.417,1.381-2.384c0.373-0.965,0.559-1.867,0.559-2.703c0-0.618-0.168-1.165-0.504-1.641
					C47.181,137.873,46.674,137.635,45.998,137.635z"/>
				<path d="M53.657,136.917l-1.369,4.751c0.421-0.456,0.788-0.768,1.102-0.936c0.313-0.168,0.642-0.252,0.984-0.252
					c0.482,0,0.877,0.166,1.184,0.498c0.307,0.334,0.461,0.783,0.461,1.353c0,0.733-0.204,1.462-0.612,2.188
					c-0.408,0.726-0.919,1.291-1.535,1.696c-0.616,0.405-1.223,0.608-1.821,0.608c-0.669,0-1.355-0.256-2.06-0.766l2.078-7.203
					c0.159-0.551,0.239-0.875,0.239-0.972c0-0.118-0.037-0.208-0.109-0.267c-0.105-0.082-0.259-0.123-0.462-0.123
					c-0.095,0-0.24,0.016-0.434,0.048v-0.25L53.657,136.917z M51.002,146.127c0.438,0.234,0.824,0.352,1.157,0.352
					c0.386,0,0.785-0.146,1.199-0.438s0.773-0.784,1.078-1.477c0.305-0.693,0.457-1.393,0.457-2.1c0-0.416-0.099-0.742-0.296-0.979
					c-0.197-0.235-0.431-0.353-0.699-0.353c-0.403,0-0.797,0.177-1.183,0.529c-0.386,0.353-0.666,0.831-0.84,1.437L51.002,146.127z"
					/>
				<path d="M59.748,140.479l-1.765,6.119c-0.314,1.098-0.745,1.889-1.294,2.373c-0.548,0.484-1.141,0.728-1.778,0.728
					c-0.286,0-0.504-0.067-0.651-0.201c-0.148-0.134-0.222-0.293-0.222-0.478c0-0.144,0.056-0.27,0.168-0.377
					c0.112-0.108,0.242-0.164,0.389-0.164c0.133,0,0.25,0.043,0.351,0.129c0.082,0.068,0.124,0.146,0.124,0.23
					c0,0.118-0.057,0.219-0.17,0.305c-0.063,0.051-0.095,0.092-0.095,0.123l0.014,0.033c0.014,0.018,0.034,0.031,0.061,0.041
					c0.027,0.01,0.068,0.014,0.123,0.014c0.368,0,0.682-0.117,0.943-0.35c0.261-0.232,0.493-0.697,0.697-1.395l1.507-5.226
					c0.15-0.522,0.226-0.811,0.226-0.866c0-0.111-0.05-0.211-0.147-0.299c-0.099-0.087-0.224-0.131-0.375-0.131
					c-0.06,0-0.129,0.007-0.207,0.021c-0.06,0.009-0.147,0.022-0.262,0.041v-0.25L59.748,140.479z M59.647,137.775
					c0.19,0,0.353,0.067,0.487,0.201c0.134,0.135,0.201,0.297,0.201,0.487c0,0.191-0.067,0.353-0.201,0.487
					c-0.134,0.134-0.296,0.201-0.487,0.201s-0.353-0.067-0.487-0.201c-0.134-0.135-0.201-0.296-0.201-0.487
					c0-0.19,0.067-0.353,0.201-0.487C59.294,137.843,59.456,137.775,59.647,137.775z"/>
				<path d="M61.943,144.073c-0.031,0.226-0.047,0.413-0.047,0.563c0,0.403,0.146,0.746,0.439,1.028
					c0.292,0.283,0.647,0.424,1.065,0.424c0.335,0,0.656-0.066,0.965-0.201c0.309-0.133,0.768-0.429,1.376-0.887l0.143,0.198
					c-1.083,1.083-2.115,1.624-3.098,1.624c-0.667,0-1.17-0.209-1.508-0.629c-0.338-0.418-0.507-0.881-0.507-1.385
					c0-0.68,0.21-1.373,0.63-2.084c0.42-0.709,0.947-1.262,1.582-1.656c0.634-0.394,1.287-0.59,1.958-0.59
					c0.484,0,0.842,0.098,1.075,0.291c0.232,0.195,0.349,0.428,0.349,0.694c0,0.377-0.153,0.737-0.458,1.082
					c-0.402,0.449-0.995,0.813-1.777,1.089C63.611,143.823,62.882,143.969,61.943,144.073z M61.992,143.745
					c0.69-0.077,1.251-0.208,1.685-0.396c0.573-0.25,1.003-0.548,1.29-0.896c0.287-0.349,0.43-0.679,0.43-0.991
					c0-0.189-0.062-0.345-0.185-0.463c-0.124-0.118-0.3-0.177-0.528-0.177c-0.475,0-0.979,0.247-1.513,0.739
					C62.636,142.055,62.243,142.782,61.992,143.745z"/>
				<path d="M71.96,145.174c-0.474,0.57-0.952,0.987-1.435,1.251c-0.483,0.265-0.993,0.397-1.531,0.397
					c-0.647,0-1.151-0.182-1.513-0.547c-0.362-0.363-0.543-0.854-0.543-1.467c0-0.697,0.195-1.383,0.584-2.057
					s0.914-1.221,1.572-1.643c0.658-0.422,1.305-0.631,1.938-0.631c0.497,0,0.868,0.104,1.114,0.311
					c0.246,0.208,0.369,0.462,0.369,0.763c0,0.283-0.086,0.524-0.259,0.726c-0.127,0.154-0.284,0.231-0.47,0.231
					c-0.141,0-0.258-0.045-0.351-0.136c-0.093-0.091-0.139-0.205-0.139-0.341c0-0.086,0.017-0.166,0.05-0.239
					c0.034-0.072,0.103-0.16,0.208-0.262s0.169-0.176,0.192-0.223c0.023-0.045,0.034-0.093,0.034-0.143
					c0-0.096-0.043-0.175-0.13-0.239c-0.133-0.091-0.321-0.136-0.564-0.136c-0.449,0-0.894,0.157-1.333,0.471
					c-0.44,0.314-0.815,0.76-1.127,1.338c-0.376,0.701-0.564,1.402-0.564,2.104c0,0.465,0.133,0.832,0.399,1.104
					c0.266,0.271,0.628,0.405,1.086,0.405c0.353,0,0.702-0.087,1.049-0.263c0.346-0.176,0.734-0.493,1.165-0.954L71.96,145.174z"/>
				<path d="M76.539,138.792l-0.553,1.844h0.941l-0.109,0.438h-0.963l-1.241,4.029c-0.156,0.459-0.234,0.756-0.234,0.891
					c0,0.072,0.017,0.129,0.049,0.167c0.032,0.038,0.071,0.058,0.115,0.058c0.101,0,0.234-0.074,0.4-0.226
					c0.097-0.091,0.313-0.371,0.649-0.841l0.226,0.171c-0.396,0.602-0.77,1.02-1.122,1.255c-0.241,0.163-0.484,0.245-0.729,0.245
					c-0.189,0-0.344-0.063-0.464-0.187c-0.12-0.123-0.18-0.281-0.18-0.476c0-0.246,0.077-0.623,0.23-1.128l1.198-3.959h-1.043
					l0.068-0.271c0.501-0.138,0.927-0.342,1.276-0.611c0.349-0.271,0.744-0.735,1.185-1.398L76.539,138.792z"/>
			</g>
			<g>
				<path d="M476.453,146.333l-1.478-4.5c-0.338,0.005-0.685-0.028-1.04-0.103l-0.85,2.938c-0.104,0.333-0.157,0.613-0.157,0.841
					c0,0.175,0.066,0.313,0.198,0.411c0.102,0.075,0.374,0.129,0.82,0.162l-0.063,0.25h-3.548l0.075-0.25
					c0.337-0.014,0.563-0.048,0.684-0.104c0.188-0.076,0.323-0.183,0.41-0.313c0.146-0.215,0.299-0.594,0.458-1.138l1.614-5.598
					c0.109-0.373,0.164-0.662,0.164-0.867c0-0.209-0.085-0.388-0.256-0.533c-0.171-0.146-0.416-0.217-0.735-0.213l0.082-0.25h3.021
					c1.012,0,1.739,0.191,2.187,0.574c0.446,0.381,0.67,0.885,0.67,1.508c0,0.596-0.228,1.14-0.684,1.634
					c-0.456,0.493-1.08,0.806-1.873,0.938l0.89,2.713c0.219,0.67,0.438,1.104,0.656,1.307c0.218,0.201,0.572,0.316,1.06,0.344
					l-0.074,0.25L476.453,146.333z M474.049,141.334c0.288,0.042,0.545,0.063,0.771,0.063c0.775,0,1.39-0.219,1.841-0.656
					s0.677-0.98,0.677-1.631c0-0.508-0.142-0.897-0.425-1.168c-0.283-0.27-0.707-0.404-1.273-0.404
					c-0.145,0-0.315,0.018-0.516,0.055L474.049,141.334z"/>
				<path d="M480.828,143.74c-0.031,0.226-0.047,0.414-0.047,0.563c0,0.403,0.146,0.746,0.438,1.028
					c0.293,0.283,0.648,0.424,1.066,0.424c0.334,0,0.655-0.067,0.965-0.201c0.309-0.133,0.768-0.429,1.376-0.887l0.144,0.198
					c-1.085,1.083-2.116,1.624-3.1,1.624c-0.667,0-1.169-0.21-1.508-0.628c-0.338-0.418-0.507-0.881-0.507-1.387
					c0-0.679,0.21-1.373,0.63-2.082c0.42-0.711,0.947-1.263,1.581-1.656c0.635-0.395,1.287-0.592,1.959-0.592
					c0.482,0,0.842,0.099,1.074,0.293s0.35,0.426,0.35,0.693c0,0.377-0.152,0.737-0.458,1.082c-0.403,0.449-0.995,0.813-1.777,1.089
					C482.496,143.49,481.768,143.636,480.828,143.74z M480.877,143.412c0.689-0.077,1.251-0.208,1.686-0.395
					c0.572-0.25,1.003-0.549,1.289-0.896s0.431-0.678,0.431-0.991c0-0.19-0.063-0.345-0.187-0.463
					c-0.123-0.118-0.299-0.177-0.526-0.177c-0.477,0-0.98,0.246-1.515,0.738C481.521,141.723,481.129,142.449,480.877,143.412z"/>
				<path d="M492.379,140.24l-1.33,4.648l-0.157,0.619c-0.015,0.057-0.021,0.104-0.021,0.141c0,0.065,0.016,0.123,0.049,0.172
					c0.027,0.035,0.061,0.055,0.101,0.055c0.043,0,0.099-0.032,0.168-0.098c0.129-0.123,0.301-0.391,0.515-0.805l0.231,0.163
					c-0.269,0.46-0.544,0.8-0.826,1.021c-0.284,0.222-0.546,0.333-0.787,0.333c-0.167,0-0.296-0.049-0.388-0.146
					c-0.091-0.098-0.137-0.238-0.137-0.425c0-0.224,0.051-0.515,0.15-0.877l0.151-0.515c-0.658,0.776-1.265,1.32-1.817,1.629
					c-0.396,0.223-0.786,0.334-1.168,0.334c-0.367,0-0.686-0.137-0.951-0.407c-0.267-0.271-0.399-0.646-0.399-1.12
					c0-0.713,0.236-1.466,0.709-2.257c0.473-0.792,1.072-1.425,1.801-1.901c0.567-0.376,1.104-0.564,1.608-0.564
					c0.304,0,0.554,0.066,0.754,0.201c0.2,0.134,0.353,0.355,0.456,0.666l0.222-0.695L492.379,140.24z M489.848,140.583
					c-0.317,0-0.655,0.134-1.015,0.403c-0.507,0.381-0.959,0.943-1.354,1.691c-0.396,0.747-0.593,1.424-0.593,2.027
					c0,0.304,0.088,0.545,0.265,0.722s0.378,0.265,0.605,0.265c0.564,0,1.178-0.359,1.84-1.08c0.808-0.959,1.196-1.94,1.17-2.947
					c0-0.38-0.083-0.656-0.247-0.826C490.355,140.668,490.131,140.583,489.848,140.583z"/>
				<path d="M496.688,136.615l-2.414,8.164c-0.118,0.406-0.178,0.656-0.178,0.748c0,0.067,0.021,0.125,0.06,0.171
					c0.038,0.045,0.086,0.067,0.143,0.067c0.078,0,0.161-0.039,0.251-0.115c0.212-0.191,0.436-0.492,0.667-0.901l0.203,0.211
					c-0.411,0.608-0.79,1.032-1.136,1.272c-0.256,0.173-0.498,0.259-0.729,0.259c-0.164,0-0.301-0.06-0.411-0.175
					c-0.109-0.117-0.165-0.252-0.165-0.405c0-0.165,0.074-0.502,0.227-1.013l1.918-6.422c0.15-0.526,0.226-0.828,0.226-0.906
					c0-0.109-0.044-0.199-0.131-0.271c-0.086-0.069-0.223-0.106-0.405-0.106c-0.107,0-0.27,0.017-0.485,0.049v-0.25L496.688,136.615
					z"/>
				<path d="M503.235,140.115l-1.438,4.849c-0.097,0.328-0.145,0.522-0.145,0.588c0,0.07,0.02,0.128,0.059,0.171
					s0.086,0.065,0.14,0.065c0.063,0,0.138-0.035,0.225-0.104c0.235-0.201,0.475-0.492,0.715-0.871l0.239,0.157
					c-0.295,0.472-0.643,0.861-1.039,1.171c-0.295,0.232-0.576,0.349-0.845,0.349c-0.179,0-0.322-0.056-0.436-0.166
					c-0.112-0.11-0.169-0.248-0.169-0.415c0-0.17,0.061-0.453,0.184-0.848l0.951-3.088c0.146-0.512,0.219-0.832,0.219-0.963
					c0-0.102-0.034-0.186-0.104-0.25c-0.071-0.063-0.168-0.097-0.29-0.097c-0.101,0-0.307,0.024-0.62,0.075v-0.25L503.235,140.115z
					 M502.935,137.412c0.192,0,0.354,0.066,0.487,0.199c0.133,0.134,0.2,0.296,0.2,0.488c0,0.188-0.067,0.351-0.203,0.485
					s-0.297,0.203-0.484,0.203s-0.35-0.067-0.484-0.203c-0.135-0.135-0.202-0.297-0.202-0.485c0-0.191,0.066-0.354,0.199-0.488
					C502.58,137.479,502.742,137.412,502.935,137.412z"/>
				<path d="M506.754,140.146l-0.887,3.095c0.404-0.728,0.748-1.274,1.031-1.64c0.44-0.567,0.871-0.979,1.289-1.235
					c0.245-0.146,0.504-0.22,0.772-0.22c0.231,0,0.424,0.076,0.578,0.229c0.152,0.152,0.229,0.346,0.229,0.583
					c0,0.222-0.057,0.509-0.169,0.865l-0.521,1.716c0.785-1.391,1.529-2.365,2.231-2.926c0.392-0.311,0.775-0.465,1.156-0.465
					c0.223,0,0.404,0.078,0.546,0.234c0.143,0.156,0.213,0.399,0.213,0.729c0,0.262-0.046,0.539-0.14,0.832l-0.854,2.631
					c-0.188,0.572-0.28,0.891-0.28,0.953c0,0.062,0.019,0.115,0.056,0.158c0.023,0.03,0.058,0.047,0.098,0.047
					c0.041,0,0.111-0.043,0.214-0.125c0.23-0.198,0.448-0.461,0.651-0.791l0.227,0.145c-0.109,0.182-0.303,0.428-0.579,0.739
					c-0.277,0.31-0.515,0.521-0.71,0.629c-0.196,0.108-0.377,0.164-0.543,0.164c-0.152,0-0.28-0.054-0.383-0.162
					c-0.104-0.108-0.153-0.24-0.153-0.397c0-0.22,0.106-0.66,0.324-1.32l0.72-2.195c0.163-0.506,0.25-0.786,0.261-0.841
					c0.017-0.087,0.023-0.171,0.023-0.253c0-0.114-0.026-0.203-0.081-0.268c-0.06-0.063-0.126-0.096-0.199-0.096
					c-0.207,0-0.427,0.098-0.657,0.294c-0.681,0.579-1.315,1.392-1.907,2.435c-0.39,0.688-0.754,1.571-1.094,2.646h-1.037
					l1.247-4.122c0.137-0.444,0.204-0.741,0.204-0.893c0-0.122-0.025-0.214-0.077-0.272c-0.051-0.059-0.112-0.088-0.188-0.088
					c-0.153,0-0.316,0.055-0.488,0.164c-0.278,0.177-0.637,0.557-1.076,1.139c-0.438,0.58-0.777,1.137-1.02,1.668
					c-0.117,0.25-0.394,1.053-0.829,2.405h-1.008l1.275-4.426l0.165-0.574c0.032-0.086,0.048-0.151,0.048-0.192
					c0-0.101-0.046-0.189-0.138-0.271c-0.093-0.08-0.21-0.12-0.353-0.12c-0.062,0-0.228,0.027-0.499,0.082l-0.043-0.25
					L506.754,140.146z"/>
				<path d="M520.77,140.24l-1.33,4.648l-0.157,0.619c-0.017,0.057-0.022,0.104-0.022,0.141c0,0.065,0.018,0.123,0.05,0.172
					c0.025,0.035,0.06,0.055,0.1,0.055c0.043,0,0.099-0.032,0.168-0.098c0.129-0.123,0.3-0.391,0.515-0.805l0.232,0.163
					c-0.269,0.46-0.544,0.8-0.827,1.021c-0.284,0.222-0.546,0.333-0.787,0.333c-0.167,0-0.296-0.049-0.387-0.146
					s-0.136-0.238-0.136-0.425c0-0.224,0.05-0.515,0.149-0.877l0.151-0.515c-0.659,0.776-1.266,1.32-1.817,1.629
					c-0.396,0.223-0.787,0.334-1.17,0.334c-0.367,0-0.684-0.137-0.95-0.407s-0.398-0.646-0.398-1.12
					c0-0.713,0.235-1.466,0.709-2.257c0.473-0.791,1.071-1.425,1.799-1.901c0.568-0.376,1.104-0.564,1.611-0.564
					c0.301,0,0.553,0.066,0.753,0.201c0.199,0.134,0.353,0.355,0.456,0.666l0.221-0.695L520.77,140.24z M518.237,140.583
					c-0.318,0-0.657,0.134-1.016,0.403c-0.508,0.381-0.959,0.943-1.354,1.691c-0.396,0.747-0.593,1.424-0.593,2.027
					c0,0.304,0.088,0.545,0.264,0.722s0.378,0.265,0.605,0.265c0.563,0,1.179-0.359,1.842-1.08c0.806-0.959,1.194-1.94,1.168-2.947
					c0-0.38-0.082-0.656-0.246-0.826S518.521,140.583,518.237,140.583z"/>
				<path d="M528.13,140.568l-0.198,0.703h-1.142c0.084,0.248,0.126,0.479,0.126,0.693c0,0.605-0.258,1.145-0.772,1.616
					c-0.521,0.472-1.232,0.733-2.139,0.784c-0.474,0.146-0.828,0.32-1.063,0.521c-0.09,0.073-0.135,0.149-0.135,0.228
					c0,0.092,0.04,0.176,0.121,0.251c0.081,0.076,0.285,0.152,0.614,0.23l1.337,0.307c0.74,0.175,1.227,0.38,1.46,0.615
					c0.229,0.241,0.343,0.52,0.343,0.834c0,0.373-0.139,0.715-0.414,1.023c-0.275,0.311-0.68,0.552-1.211,0.727
					c-0.531,0.176-1.119,0.264-1.763,0.264c-0.565,0-1.081-0.067-1.546-0.202c-0.466-0.136-0.799-0.315-1-0.544
					c-0.2-0.229-0.301-0.463-0.301-0.705c0-0.196,0.064-0.4,0.194-0.612c0.132-0.212,0.294-0.387,0.491-0.522
					c0.123-0.088,0.475-0.293,1.05-0.616c-0.21-0.164-0.313-0.345-0.313-0.541c0-0.183,0.089-0.376,0.268-0.581
					c0.178-0.205,0.556-0.432,1.131-0.677c-0.485-0.097-0.873-0.306-1.157-0.63c-0.285-0.324-0.429-0.686-0.429-1.084
					c0-0.647,0.285-1.228,0.855-1.738c0.57-0.512,1.33-0.768,2.279-0.768c0.343,0,0.625,0.035,0.845,0.103s0.433,0.175,0.64,0.319
					h1.829V140.568z M522.479,146.342c-0.37,0.168-0.649,0.385-0.84,0.65c-0.189,0.264-0.285,0.523-0.285,0.779
					c0,0.302,0.138,0.551,0.412,0.746c0.394,0.283,0.971,0.424,1.729,0.424c0.654,0,1.214-0.11,1.679-0.332
					c0.464-0.221,0.696-0.508,0.696-0.859c0-0.178-0.086-0.348-0.258-0.506c-0.172-0.159-0.504-0.29-0.998-0.391
					C524.343,146.8,523.631,146.629,522.479,146.342z M525.791,141.657c0-0.362-0.105-0.647-0.315-0.855s-0.484-0.312-0.825-0.312
					c-0.534,0-0.976,0.257-1.321,0.77c-0.348,0.514-0.521,1.049-0.521,1.605c0,0.348,0.111,0.633,0.333,0.855
					c0.223,0.221,0.491,0.332,0.81,0.332c0.25,0,0.492-0.064,0.727-0.197c0.233-0.131,0.432-0.312,0.593-0.543
					c0.159-0.229,0.287-0.523,0.383-0.881C525.747,142.073,525.791,141.814,525.791,141.657z"/>
				<path d="M529.432,143.74c-0.03,0.226-0.047,0.414-0.047,0.563c0,0.403,0.146,0.746,0.438,1.028
					c0.293,0.283,0.647,0.424,1.065,0.424c0.334,0,0.655-0.067,0.965-0.201c0.31-0.133,0.769-0.429,1.377-0.887l0.143,0.198
					c-1.084,1.083-2.116,1.624-3.099,1.624c-0.667,0-1.169-0.21-1.509-0.628c-0.338-0.418-0.507-0.881-0.507-1.387
					c0-0.679,0.21-1.373,0.63-2.082c0.42-0.711,0.947-1.263,1.581-1.656c0.636-0.395,1.287-0.592,1.959-0.592
					c0.483,0,0.842,0.099,1.074,0.293c0.233,0.194,0.35,0.426,0.35,0.693c0,0.377-0.151,0.737-0.458,1.082
					c-0.402,0.449-0.994,0.813-1.776,1.089C531.1,143.49,530.371,143.636,529.432,143.74z M529.48,143.412
					c0.688-0.077,1.25-0.208,1.685-0.395c0.573-0.25,1.003-0.549,1.29-0.896c0.286-0.348,0.43-0.678,0.43-0.991
					c0-0.19-0.062-0.345-0.186-0.463c-0.123-0.118-0.299-0.177-0.527-0.177c-0.476,0-0.979,0.246-1.514,0.738
					C530.125,141.723,529.732,142.449,529.48,143.412z"/>
			</g>
		</g>
	</g>
</svg>
