<?xml version="1.0" encoding="UTF-8" standalone="no"?>
<svg
   xmlns:dc="http://purl.org/dc/elements/1.1/"
   xmlns:cc="http://creativecommons.org/ns#"
   xmlns:rdf="http://www.w3.org/1999/02/22-rdf-syntax-ns#"
   xmlns:svg="http://www.w3.org/2000/svg"
   xmlns="http://www.w3.org/2000/svg"
   xmlns:sodipodi="http://sodipodi.sourceforge.net/DTD/sodipodi-0.dtd"
   xmlns:inkscape="http://www.inkscape.org/namespaces/inkscape"
   width="578px"
   height="446px"
   version="1.1"
   id="svg2"
   inkscape:version="0.48.4 r9939"
   sodipodi:docname="perspproj.svg">
  <metadata
     id="metadata18">
    <rdf:RDF>
      <cc:Work
         rdf:about="">
        <dc:format>image/svg+xml</dc:format>
        <dc:type
           rdf:resource="http://purl.org/dc/dcmitype/StillImage" />
        <dc:title></dc:title>
      </cc:Work>
    </rdf:RDF>
  </metadata>
  <defs
     id="defs16" />
  <sodipodi:namedview
     pagecolor="#ffffff"
     bordercolor="#666666"
     borderopacity="1"
     objecttolerance="10"
     gridtolerance="10"
     guidetolerance="10"
     inkscape:pageopacity="0"
     inkscape:pageshadow="2"
     inkscape:window-width="1633"
     inkscape:window-height="845"
     id="namedview14"
     showgrid="false"
     inkscape:zoom="1.4966565"
     inkscape:cx="274.42861"
     inkscape:cy="216.01475"
     inkscape:window-x="0"
     inkscape:window-y="0"
     inkscape:window-maximized="0"
     inkscape:current-layer="svg2" />
  <path
     fill="none"
     stroke="black"
     d="    M 541 123 L 394 147 m 0 0 L 346 88 347 203 391 269 z"
     stroke-width="1"
     id="path4" />
  <path
     fill="none"
     stroke="black"
     d="    M 482 68 L 541 123 530 242 391 269 347 203 346 88 z    M 346 88 L 280 168 M 347 203 L 283 247    M 394 147 L 358 175 M 391 269 L 357 280    M 541 123 L 398 204 M 530 242 L 397 280"
     stroke-width="2.5"
     id="path6" />
  <path
     d="M 48,54 550,170 527,396 77,251 z"
     id="path8"
     inkscape:connector-curvature="0"
     style="fill:#00ff00;stroke:#000000;stroke-width:2.50000000000000000;fill-opacity:0.87614679" />
  <path
     d="    M 280 168 L 118 359 283 247    M 358 175 L 118 359 357 280    M 398 204 L 118 359 397 280"
     id="path10"
     stroke-width="2"
     stroke="black"
     fill="none" />
  <path
     d="    M 358 175 L 398 204 510 281 397 280 357 280 358 175 280 168 62    147 283 247 357 280 M 280 168 L 283 247 M 398 204 L 397 280"
     id="path12"
     stroke="black"
     fill="none" />
  <flowRoot
     xml:space="preserve"
     id="flowRoot5318"
     style="font-size:32px;font-style:normal;font-weight:normal;line-height:125%;letter-spacing:0px;word-spacing:0px;fill:#000000;fill-opacity:1;stroke:none;font-family:Sans"
     transform="translate(28.062551,15.367588)"><flowRegion
       id="flowRegion5320"><rect
         id="rect5322"
         width="52.784325"
         height="56.793266"
         x="54.788792"
         y="318.3822"
         style="font-size:32px" /></flowRegion><flowPara
       id="flowPara5324">O</flowPara></flowRoot>  <text
     xml:space="preserve"
     style="font-size:32px;font-style:normal;font-weight:normal;line-height:125%;letter-spacing:0px;word-spacing:0px;fill:#000000;fill-opacity:1;stroke:none;font-family:Sans"
     x="327.39642"
     y="89.204704"
     id="text5326"
     sodipodi:linespacing="125%"><tspan
       sodipodi:role="line"
       id="tspan5328"
       x="327.39642"
       y="89.204704">P</tspan></text>
  <text
     xml:space="preserve"
     style="font-size:32px;font-style:normal;font-weight:normal;line-height:125%;letter-spacing:0px;word-spacing:0px;fill:#000000;fill-opacity:1;stroke:none;font-family:Sans"
     x="257.9082"
     y="155.35214"
     id="text5330"
     sodipodi:linespacing="125%"><tspan
       sodipodi:role="line"
       id="tspan5332"
       x="257.9082"
       y="155.35214"
       style="font-size:32px">p</tspan></text>
</svg>
