<?xml version="1.0" encoding="UTF-8" standalone="no"?>
<!-- Created with Inkscape (http://www.inkscape.org/) -->
<svg
   xmlns:dc="http://purl.org/dc/elements/1.1/"
   xmlns:cc="http://creativecommons.org/ns#"
   xmlns:rdf="http://www.w3.org/1999/02/22-rdf-syntax-ns#"
   xmlns:svg="http://www.w3.org/2000/svg"
   xmlns="http://www.w3.org/2000/svg"
   xmlns:xlink="http://www.w3.org/1999/xlink"
   xmlns:sodipodi="http://sodipodi.sourceforge.net/DTD/sodipodi-0.dtd"
   xmlns:inkscape="http://www.inkscape.org/namespaces/inkscape"
   id="svg4354"
   sodipodi:version="0.32"
   inkscape:version="0.46"
   width="400"
   height="273"
   version="1.0"
   sodipodi:docname="Pinhole-camera.svg"
   inkscape:output_extension="org.inkscape.output.svg.inkscape">
  <metadata
     id="metadata4359">
    <rdf:RDF>
      <cc:Work
         rdf:about="">
        <dc:format>image/svg+xml</dc:format>
        <dc:type
           rdf:resource="http://purl.org/dc/dcmitype/StillImage" />
      </cc:Work>
    </rdf:RDF>
  </metadata>
  <defs
     id="defs4357">
    <linearGradient
       id="linearGradient4896">
      <stop
         style="stop-color:#7e450d;stop-opacity:1;"
         offset="0"
         id="stop4898" />
      <stop
         style="stop-color:#a95c13;stop-opacity:1;"
         offset="1"
         id="stop4900" />
    </linearGradient>
    <linearGradient
       id="linearGradient4876">
      <stop
         style="stop-color:#56b142;stop-opacity:1;"
         offset="0"
         id="stop4878" />
      <stop
         style="stop-color:#21922a;stop-opacity:1;"
         offset="1"
         id="stop4880" />
    </linearGradient>
    <inkscape:perspective
       sodipodi:type="inkscape:persp3d"
       inkscape:vp_x="0 : 526.18109 : 1"
       inkscape:vp_y="0 : 1000 : 0"
       inkscape:vp_z="744.09448 : 526.18109 : 1"
       inkscape:persp3d-origin="372.04724 : 350.78739 : 1"
       id="perspective4361" />
    <radialGradient
       inkscape:collect="always"
       xlink:href="#linearGradient4876"
       id="radialGradient4882"
       cx="95.625107"
       cy="78.475685"
       fx="95.625107"
       fy="78.475685"
       r="91.4003"
       gradientTransform="matrix(0.9125895,-1.9285979e-3,1.1713163e-3,0.5542529,8.2667233,35.16473)"
       gradientUnits="userSpaceOnUse" />
    <linearGradient
       inkscape:collect="always"
       xlink:href="#linearGradient4896"
       id="linearGradient4902"
       x1="93.854118"
       y1="214.76768"
       x2="93.854118"
       y2="140.5386"
       gradientUnits="userSpaceOnUse"
       spreadMethod="pad" />
    <radialGradient
       inkscape:collect="always"
       xlink:href="#linearGradient4876"
       id="radialGradient4908"
       gradientUnits="userSpaceOnUse"
       gradientTransform="matrix(0.352007,-0.1486741,4.6001182e-3,-0.2131488,376.33384,218.4383)"
       cx="95.625107"
       cy="78.475685"
       fx="95.625107"
       fy="78.475685"
       r="91.4003" />
    <linearGradient
       inkscape:collect="always"
       xlink:href="#linearGradient4896"
       id="linearGradient4910"
       gradientUnits="userSpaceOnUse"
       x1="93.854118"
       y1="214.76768"
       x2="94.237587"
       y2="94.403542"
       gradientTransform="matrix(0.352007,-0.1486741,7.8346586e-3,-0.3630255,376.08,230.19996)" />
    <radialGradient
       inkscape:collect="always"
       xlink:href="#linearGradient4876"
       id="radialGradient4941"
       gradientUnits="userSpaceOnUse"
       gradientTransform="matrix(0.2924518,-0.1955116,-3.8569974e-3,-0.2122918,320.22229,248.80241)"
       cx="95.625107"
       cy="78.475685"
       fx="95.625107"
       fy="78.475685"
       r="91.4003" />
    <linearGradient
       inkscape:collect="always"
       xlink:href="#linearGradient4896"
       id="linearGradient4943"
       gradientUnits="userSpaceOnUse"
       spreadMethod="pad"
       x1="93.854118"
       y1="214.76768"
       x2="93.854118"
       y2="140.5386"
       gradientTransform="matrix(0.3204476,-0.215047,-7.6361313e-3,-0.382569,317.84178,264.03309)" />
  </defs>
  <sodipodi:namedview
     inkscape:window-height="968"
     inkscape:window-width="1280"
     inkscape:pageshadow="2"
     inkscape:pageopacity="0.0"
     guidetolerance="10.0"
     gridtolerance="10.0"
     objecttolerance="10.0"
     borderopacity="1.0"
     bordercolor="#666666"
     pagecolor="#ffffff"
     id="base"
     showgrid="false"
     inkscape:zoom="1.4142136"
     inkscape:cx="150.37192"
     inkscape:cy="117.11199"
     inkscape:window-x="-4"
     inkscape:window-y="-4"
     inkscape:current-layer="svg4354" />
  <path
     style="fill:none;fill-rule:evenodd;stroke:#000000;stroke-width:1px;stroke-linecap:butt;stroke-linejoin:miter;stroke-opacity:1;opacity:1"
     d="M 307.35294,204.43382 L 380.76536,224.10462"
     id="path4924" />
  <path
     style="opacity:1;fill:url(#radialGradient4941);fill-opacity:1;fill-rule:evenodd;stroke:none;stroke-width:1px;stroke-linecap:butt;stroke-linejoin:miter;stroke-opacity:1"
     d="M 343.23043,194.19408 C 343.06382,194.30588 341.88813,195.67437 341.37439,195.31363 C 340.86066,194.95288 340.59537,194.3498 339.90809,194.81102 C 339.22083,195.27224 338.9367,195.84086 338.63325,196.49805 C 338.32979,197.15523 337.98269,197.74092 337.44121,198.10431 C 336.89971,198.4677 336.49954,198.50947 336.20797,198.70513 C 335.9164,198.9008 335.55146,199.64965 335.38832,199.93549 C 335.22518,200.22135 334.84489,200.73154 334.49147,200.96871 C 334.13803,201.2059 333.27267,201.2165 332.59526,201.6711 C 331.91784,202.12571 331.33648,202.9078 331.17239,203.65931 C 331.00832,204.41084 331.3351,204.33407 330.8169,205.2876 C 330.29867,206.24114 328.40857,207.64309 327.62113,208.37311 C 326.8337,209.10311 325.99171,209.21461 325.04363,210.3548 C 324.09556,211.49497 322.6209,215.86094 321.87614,216.61271 C 321.13132,217.36453 320.7158,217.69376 320.16537,217.60961 C 319.61495,217.52542 319.53166,217.58133 319.00308,218.59117 C 318.47451,219.60102 318.48145,219.94907 318.52063,220.85508 C 318.55983,221.76106 318.55042,222.34689 319.16231,222.33942 C 319.77423,222.33191 319.96928,222.58029 319.98261,223.24839 C 319.99593,223.9165 318.67058,226.30251 318.70848,228.20129 C 318.74637,230.10008 320.07317,229.28095 320.13491,230.87868 C 320.19666,232.47638 318.87548,233.57679 318.94072,235.35034 C 319.00597,237.12384 323.22127,235.96981 323.28934,239.38058 C 323.35744,242.79136 322.37563,241.45474 322.43249,244.30292 C 322.46352,245.85817 322.81048,245.29643 323.91989,245.54964 C 325.02929,245.80289 325.82874,245.48021 326.71233,244.88725 C 327.59592,244.2943 328.32381,243.37819 329.03069,242.90383 C 329.73755,242.42946 330.57488,242.50894 331.18009,242.92239 C 331.78527,243.33582 331.50688,244.34223 332.43535,244.50308 C 333.36384,244.66392 334.98305,243.54166 335.95499,242.88941 C 336.92694,242.23716 338.37855,241.69063 339.87367,241.82753 C 341.36876,241.96448 342.40945,241.76496 343.41085,241.09294 C 344.41223,240.42093 344.34631,240.10882 344.76846,238.82778 C 345.1906,237.54676 346.28454,235.52982 347.3743,234.79851 C 348.46405,234.06719 349.62606,233.96442 350.46758,234.2549 C 351.30912,234.54538 351.4073,234.97835 351.96444,234.47975 C 352.52159,233.98113 352.59519,231.68684 353.40513,231.1433 C 354.21509,230.59975 355.61902,229.90702 355.92619,230.34229 C 356.23334,230.77757 355.94898,231.48509 356.24388,231.305 C 356.53875,231.12494 356.99912,230.01854 357.44665,229.70559 C 357.89416,229.39268 358.4311,229.48086 359.1085,229.02626 C 359.78594,228.57165 360.25436,228.11477 360.65336,227.16996 C 361.05238,226.22514 361.16036,225.65381 363.88477,223.82551 C 366.60915,221.99722 366.54115,222.32794 367.25012,222.70736 C 367.9591,223.08677 367.92965,223.10654 368.20946,222.91877 C 368.48925,222.731 368.57374,221.73002 368.97975,221.13685 C 369.3858,220.54366 371.42997,219.02931 371.53163,218.14152 C 371.6333,217.25371 370.1066,214.78618 370.09643,214.27631 C 370.08624,213.76646 370.14795,213.11927 370.85482,212.64491 C 371.5617,212.17053 372.23316,212.16535 372.72438,212.10295 C 373.21564,212.04054 375.16232,210.87668 375.3194,210.52184 C 375.47649,210.16697 375.30603,208.35715 375.22644,208.10768 C 375.14686,207.85819 373.41714,206.43553 373.05529,206.25077 C 372.69344,206.066 371.56894,205.80507 372.0707,205.5218 C 372.57244,205.23854 374.64273,204.63294 375.36234,203.12037 C 375.82258,202.15302 374.9382,202.64881 374.92327,202.42915 C 374.87825,201.76737 375.62332,201.40681 376.01629,201.00451 C 376.40926,200.60221 376.76106,199.72361 376.78881,198.99949 C 376.81658,198.27535 377.00568,193.47445 376.98583,192.4799 C 376.96598,191.48535 376.48142,190.23262 375.87377,189.69611 C 375.2661,189.15963 373.84708,188.34804 373.83372,186.18335 C 373.82035,184.01868 374.07246,183.19027 373.78177,182.83301 C 373.49109,182.47576 373.06368,182.74478 372.78457,182.96771 C 372.50547,183.19066 371.93851,183.94528 371.40869,184.31865 C 370.8789,184.692 369.51039,185.66384 369.3747,185.59455 C 369.23902,185.52526 369.18007,184.0682 369.17901,183.26716 C 369.17796,182.46611 369.26348,181.51786 368.81222,181.33964 C 368.36094,181.16145 367.36867,181.54228 364.99769,183.13341 C 362.62674,184.72451 361.55875,186.54586 360.82242,187.04 C 360.0861,187.53412 359.25339,188.05232 358.55424,187.91679 C 357.85504,187.78128 357.23568,186.35757 356.57072,185.82113 C 355.90573,185.28473 355.49513,183.74611 354.5163,184.40297 C 353.53746,185.05987 350.93118,186.65772 350.60242,187.10511 C 350.27367,187.5525 343.19128,194.20395 343.23043,194.19408 z"
     id="path4937"
     sodipodi:nodetypes="cssssssssssssssssssssssssssssssssssssssssssssssssssssssssssssssssssssssssc" />
  <path
     style="opacity:1;fill:url(#linearGradient4943);fill-opacity:1;fill-rule:evenodd;stroke:none;stroke-width:1px;stroke-linecap:butt;stroke-linejoin:miter;stroke-opacity:1"
     d="M 329.74837,217.54996 C 329.74837,217.54996 332.76162,212.24951 333.00951,211.95845 C 333.25741,211.66737 333.84331,211.11383 334.08663,210.59422 C 334.32997,210.07458 334.77454,207.67386 336.51226,206.5077 C 338.24997,205.34155 341.87632,201.42714 342.28739,200.87413 C 342.69846,200.32111 343.66089,197.78548 343.95246,197.58982 C 344.24403,197.39415 345.29651,196.72565 345.58535,196.92237 C 345.87421,197.11905 345.72177,199.52685 345.6251,200.49881 C 345.52842,201.47079 345.94593,201.24098 346.37536,201.60793 C 346.8048,201.97484 347.15836,202.77065 347.17077,203.39221 C 347.18318,204.01383 346.34027,208.3086 346.34027,208.3086 C 346.34027,208.3086 347.40138,205.42959 347.4921,204.6884 C 347.58285,203.94719 347.83323,201.68783 347.65619,201.27752 C 347.47917,200.86719 347.13503,200.54379 347.11171,199.37519 C 347.08837,198.20661 347.38315,197.64343 347.68737,197.02353 C 347.99157,196.40364 348.65104,194.02093 349.46352,193.48828 C 350.276,192.95565 351.82731,192.43112 352.44268,192.59767 C 353.05807,192.76424 354.3523,193.10515 355.2637,193.29982 C 356.17512,193.49446 357.10586,192.5423 357.78471,192.71666 C 358.46358,192.891 359.03034,192.73741 359.06012,194.22925 C 359.0899,195.72107 358.98625,195.81581 359.67056,196.26367 C 360.35487,196.71153 361.27719,196.39494 361.27719,196.39494 C 361.27719,196.39494 360.71932,195.93781 360.25171,195.77288 C 359.78411,195.60795 359.83713,192.97713 359.49051,192.52941 C 359.14388,192.08172 357.99243,190.43553 357.44252,190.37622 C 356.89259,190.31694 355.9708,190.65838 355.58498,190.36295 C 355.19918,190.06753 354.9557,189.50021 354.25454,189.26525 C 353.55339,189.03026 351.77121,188.56326 351.77121,188.56326 C 351.77121,188.56326 351.94643,185.72726 351.86714,181.75387 C 351.78783,177.78052 351.43365,174.98934 351.43365,174.98934 C 351.43365,174.98934 351.25969,171.39481 351.77883,168.8543 C 352.29796,166.31381 351.67359,163.58321 353.41507,160.95312 C 355.15653,158.32304 359.01596,154.8385 359.98426,153.82341 C 360.85249,152.91318 362.81115,150.59089 362.81115,150.59089 C 362.81115,150.59089 358.33053,154.50483 357.17021,155.58588 C 356.00989,156.66691 353.51667,158.64242 352.53886,160.40727 C 351.56102,162.17215 351.02029,163.10195 350.71807,163.29216 C 350.41583,163.48239 350.50432,162.10019 351.19356,160.68017 C 351.88281,159.26015 352.81846,157.49839 352.6112,157.68788 C 352.40393,157.87738 348.75442,164.30758 348.48666,164.63843 C 348.2189,164.96931 347.50635,165.74986 346.70453,166.28793 C 345.90271,166.82603 345.15297,166.80005 344.68485,166.61024 C 344.21675,166.42043 343.87601,165.46665 343.65163,165.32746 C 343.42724,165.18829 340.82002,165.42435 340.82002,165.42435 C 340.82002,165.42435 343.28453,167.29802 343.14073,167.4953 C 342.99692,167.69258 336.55264,170.50544 335.67147,170.76922 C 334.74955,171.04518 331.01132,173.09028 331.01132,173.09028 C 331.01132,173.09028 333.76487,172.52744 334.60638,172.39106 C 335.44787,172.2547 337.49084,170.98448 338.39827,170.98024 C 339.30572,170.976 340.62672,170.54303 340.92871,170.86951 C 341.2307,171.19597 341.13234,173.29686 341.37397,174.9342 C 341.61558,176.57154 341.81944,179.54417 342.09615,180.71909 C 342.37287,181.89401 342.32436,187.92339 342.22324,189.2007 C 342.12208,190.47803 342.38834,195.09912 342.10503,195.85937 C 341.82173,196.61964 340.47781,199.57045 340.04372,200.25373 C 339.60966,200.93699 338.68295,202.36065 338.27061,202.63737 C 337.85828,202.91408 336.97468,204.33862 336.72874,204.70524 C 336.4828,205.07186 334.74479,206.81772 334.50234,207.35838 C 334.25986,207.89906 332.02008,213.05567 331.65315,213.70506 C 331.28623,214.35444 329.72577,217.59377 329.74837,217.54996 z"
     id="path4939"
     sodipodi:nodetypes="cssssssssscsssssssssscssssscscssscssssssssscsscssssssssssssc" />
  <path
     style="fill:none;fill-rule:evenodd;stroke:#ff0000;stroke-width:1px;stroke-linecap:butt;stroke-linejoin:miter;stroke-opacity:1;opacity:1"
     d="M 97.150735,214.08456 L 344.48529,166.19853"
     id="path4886" />
  <path
     style="fill:url(#radialGradient4882);fill-rule:evenodd;stroke:none;stroke-width:1px;stroke-linecap:butt;stroke-linejoin:miter;stroke-opacity:1;fill-opacity:1;opacity:1"
     d="M 82.474127,136.19304 C 81.954196,136.19304 78.249684,134.69823 76.68989,136.51799 C 75.130096,138.33775 74.350198,140.35249 72.205481,140.35249 C 70.060764,140.35249 69.150884,139.37762 68.176012,138.20777 C 67.201141,137.03792 66.096287,136.12804 64.406509,136.12804 C 62.716732,136.12804 61.481895,136.71297 60.572015,136.71297 C 59.662135,136.71297 58.492289,135.41314 57.972358,134.9582 C 57.452426,134.50326 56.25,133.84559 55.147059,133.84559 C 54.044118,133.84559 51.378677,135.31618 49.264706,135.31618 C 47.150735,135.31618 45.3125,134.30515 44.761029,132.65074 C 44.209559,130.99632 45.220588,130.62868 43.566177,129.06618 C 41.911765,127.50368 36.005253,127.15923 33.535579,126.63929 C 31.065905,126.11936 28.466247,127.28921 25.476641,125.98938 C 22.487036,124.68955 17.67767,115.9807 15.337978,115.33079 C 12.998286,114.68087 11.698458,114.55089 10.008681,115.72073 C 8.3189033,116.89058 8.0589376,116.89058 6.3691604,115.2008 C 4.6793831,113.51103 4.6793831,112.60115 4.7443746,110.19646 C 4.809366,107.79178 4.7443746,106.29698 6.6291261,105.25711 C 8.5138776,104.21725 9.0992647,103.23897 9.0992647,101.49265 C 9.0992647,99.746323 4.8713235,95.886029 4.8713235,90.922794 C 4.8713235,85.959559 9.007353,85.775735 9.0992647,81.547794 C 9.1911765,77.319853 5.0551471,76.768382 5.1470588,72.080882 C 5.2389706,67.393382 18.290441,63.073529 18.290441,54.158088 C 18.290441,45.242647 15.349265,50.389706 15.349265,42.944853 C 15.349265,38.879554 16.452206,39.727941 19.852941,37.154411 C 23.253677,34.580882 25.735294,34.029411 28.492647,34.029411 C 31.25,34.029411 33.547794,35.132353 35.753677,35.132353 C 37.959559,35.132353 40.533088,33.477941 42.371324,31.36397 C 44.209559,29.25 43.290441,27.136029 46.139706,25.11397 C 48.988971,23.091911 54.044118,23.183823 57.077206,23.183823 C 60.110294,23.183823 64.613971,22.080882 69.209559,19.139705 C 73.805147,16.198529 77.022059,14.911764 80.147059,14.911764 C 83.272059,14.911764 83.088235,15.830882 84.466912,18.404411 C 85.845588,20.977941 89.338235,24.286764 92.738971,24.286764 C 96.139706,24.286764 99.724265,22.540441 102.29779,20.334558 C 104.87132,18.128676 105.14706,16.841911 106.89338,17.163602 C 108.63971,17.485294 109.00735,23.275735 111.53493,23.275735 C 114.0625,23.275735 118.42831,22.632352 119.34743,20.977941 C 120.26654,19.323529 119.34743,17.990808 120.26654,17.944852 C 121.18566,17.898897 122.67133,19.955859 124.06864,19.988354 C 125.46596,20.02085 127.11397,18.86397 129.22794,18.86397 C 131.34191,18.86397 132.8125,19.231617 134.09926,20.977941 C 135.38603,22.724264 135.75368,24.011029 144.25552,24.011029 C 152.75735,24.011029 152.52757,23.275735 154.6875,21.069852 C 156.84743,18.86397 156.75552,18.86397 157.62868,18.86397 C 158.50184,18.86397 158.82353,21.299632 160.11029,22.126838 C 161.39706,22.954044 167.78493,23.321691 168.15257,25.435661 C 168.52022,27.549632 163.97059,36.556985 163.97059,37.889705 C 163.97059,39.222426 164.20037,40.784926 166.40625,40.784926 C 168.61213,40.784926 170.68015,39.636029 172.19669,38.946691 C 173.71324,38.257352 179.77941,37.889705 180.28493,38.533088 C 180.79044,39.17647 180.37684,44.139705 180.14706,44.920955 C 179.91728,45.702205 174.67831,52.365808 173.57537,53.46875 C 172.47243,54.571691 169.02574,57.191176 170.58824,57.053308 C 172.15074,56.915441 178.56317,54.893933 180.87211,57.54974 C 182.34878,59.24825 179.59498,59.500276 179.56248,60.092687 C 179.46456,61.877562 181.78104,61.517879 183.01587,61.875332 C 184.25071,62.232785 185.38806,63.890067 185.51804,65.709827 C 185.64803,67.529587 186.52541,79.585498 186.52541,82.185155 C 186.52541,84.784812 185.11029,88.854779 183.27206,91.290441 C 181.43382,93.726103 177.11397,98.275735 177.20588,103.88235 C 177.29779,109.48897 178.125,111.18934 177.25184,112.61397 C 176.37868,114.0386 175.04596,114.08456 174.17279,113.99265 C 173.29963,113.90073 171.50735,112.93566 169.85294,112.88971 C 168.19853,112.84375 163.92463,112.70588 163.51103,113.11948 C 163.09743,113.53309 163.00552,117.39338 163.05147,119.4614 C 163.09743,121.52941 163.41912,123.82721 162.04044,125.06801 C 160.66177,126.30882 157.58272,127.04412 150.18382,127.04412 C 142.78493,127.04412 139.38419,124.19485 137.0864,124.19485 C 134.7886,124.19485 132.19257,124.2996 130.04786,125.8594 C 127.90314,127.41919 126.08338,132.16357 124.06864,134.69823 C 122.05391,137.2329 120.88406,141.91228 117.82947,141.91228 C 114.77487,141.91228 106.65094,142.30223 105.61108,141.71731 C 104.57121,141.13238 82.352941,136.23529 82.474127,136.19304 z"
     id="path4365"
     sodipodi:nodetypes="cssssssssssssssssssssssssssssssssssssssssssssssssssssssssssssssssssssssssc" />
  <path
     style="fill:url(#linearGradient4902);fill-rule:evenodd;stroke:none;stroke-width:1px;stroke-linecap:butt;stroke-linejoin:miter;stroke-opacity:1;fill-opacity:1.0;opacity:1"
     d="M 39.522059,99.286764 C 39.522059,99.286764 49.126838,107.74265 49.908088,108.06434 C 50.689338,108.38603 52.527574,108.79963 53.308824,109.71875 C 54.090074,110.63787 55.606618,116.06066 61.029412,116.06066 C 66.452206,116.06066 77.859736,119.88019 79.159564,120.59509 C 80.459393,121.31 83.578982,126.18435 84.488862,126.18435 C 85.398742,126.18435 88.680809,126.08687 89.558194,125.0795 C 90.435578,124.07213 89.818159,118.12542 89.460706,115.78573 C 89.103254,113.44603 90.403082,113.31605 91.702911,111.62627 C 93.002739,109.9365 94.042602,107.27185 94.042602,105.64706 C 94.042602,104.02228 91.182979,94.403544 91.182979,94.403544 C 91.182979,94.403544 94.627525,99.992807 94.952482,101.74758 C 95.27744,103.50234 96.18732,108.89663 95.667388,110.26145 C 95.147457,111.62627 94.107594,113.05609 94.107594,116.11068 C 94.107594,119.16528 95.04997,120.10766 96.024841,121.18001 C 96.999713,122.25237 99.176926,127.25671 101.71159,127.22422 C 104.24626,127.19172 109.05562,125.8594 110.94037,124.36459 C 112.82513,122.86979 116.7896,119.7502 119.58424,117.67048 C 122.37887,115.59075 125.30348,116.43564 127.38321,114.81085 C 129.46293,113.18607 131.2177,112.60115 131.2177,108.70166 C 131.2177,104.80217 130.89274,104.73718 132.97247,102.39749 C 135.0522,100.0578 137.91182,99.277902 137.91182,99.277902 C 137.91182,99.277902 136.22204,101.42262 134.79223,102.65746 C 133.36242,103.89229 133.68738,110.58641 132.64751,112.34118 C 131.60765,114.09595 128.1631,120.33513 126.47333,121.43998 C 124.78355,122.54483 121.92393,123.25974 120.75408,124.68955 C 119.58424,126.11936 118.86933,128.00411 116.72461,129.82387 C 114.57989,131.64363 109.12061,135.93307 109.12061,135.93307 C 109.12061,135.93307 109.83456,142.94485 109.83456,153.33088 C 109.83456,163.71691 108.91544,171.52941 108.91544,171.52941 C 108.91544,171.52941 108.60068,181.10211 110.35545,186.75637 C 112.11022,192.41062 110.35545,200.53455 115.87972,204.30406 C 121.404,208.07356 133.50291,210.38091 136.547,211.32313 C 139.27664,212.16802 145.45083,214.76768 145.45083,214.76768 C 145.45083,214.76768 131.41268,212.42799 127.77316,211.64809 C 124.13364,210.86819 116.33466,210.08829 113.21507,207.22867 C 110.09549,204.36905 108.37321,202.90674 107.43084,202.93924 C 106.48846,202.97173 106.84591,206.38378 109.05562,208.85346 C 111.26533,211.32313 114.25494,214.24775 113.60502,214.11776 C 112.95511,213.98778 101.32164,203.71913 100.47675,203.32918 C 99.631866,202.93924 97.389661,202.15934 94.887491,202.15934 C 92.385321,202.15934 90.078125,203.52416 88.648314,204.82399 C 87.218502,206.12382 86.227861,209.17379 85.545451,209.9212 C 84.863041,210.6686 76.819873,214.5727 76.819873,214.5727 C 76.819873,214.5727 84.293888,205.4739 83.838948,205.21394 C 83.384008,204.95397 63.366646,208.85345 60.637006,209.69834 C 57.781078,210.58232 46.143917,211.77807 46.143917,211.77807 C 46.143917,211.77807 54.657794,208.46351 57.257452,207.35865 C 59.857109,206.2538 66.226269,205.99383 69.020901,204.43404 C 71.815533,202.87424 75.909993,201.7044 76.819873,200.33958 C 77.729753,198.97476 77.297794,193.7261 77.941177,189.08456 C 78.584559,184.44301 79.029582,176.42273 79.809479,172.91319 C 80.589376,169.40366 80.069444,153.9357 79.679496,150.81611 C 79.289547,147.69652 79.825368,135.31618 78.90625,133.84559 C 77.987133,132.375 73.66728,127.09007 72.288603,126.07904 C 70.909927,125.06801 67.96875,123 66.681985,123 C 65.395221,123 62.586749,120.85506 61.806852,120.33513 C 61.026955,119.81519 55.567675,118.32039 54.787777,117.34552 C 54.00788,116.37065 46.793831,106.94689 45.623985,105.90703 C 44.45414,104.86716 39.449799,99.21291 39.522059,99.286764 z"
     id="path4884"
     sodipodi:nodetypes="cssssssssscsssssssssscssssscscssscssssssssscsscssssssssssssc" />
  <path
     style="fill:none;fill-rule:evenodd;stroke:#ff0000;stroke-width:1px;stroke-linecap:butt;stroke-linejoin:miter;stroke-opacity:1;opacity:1"
     d="M 340.78699,239.03454 L 107.23586,17.583672"
     id="path4912"
     sodipodi:nodetypes="cc" />
  <path
     style="fill:#b1b1b1;fill-rule:evenodd;stroke:#000000;stroke-width:1px;stroke-linecap:butt;stroke-linejoin:miter;stroke-opacity:1;fill-opacity:0.80232561;opacity:1"
     d="M 242.15808,154.53687 L 307.34448,116.43564 L 307.34448,204.88898 L 242.09559,242.34743 L 242.15808,154.53687 z"
     id="path4916" />
  <path
     style="fill:#ffffff;fill-rule:evenodd;stroke:none;stroke-width:1px;stroke-linecap:butt;stroke-linejoin:miter;stroke-opacity:1"
     d="M 277.57808,176.60146 L 276.04786,177.68422 L 276.01471,180.55684 L 277.58361,182.05944 L 279.5392,180.10385 L 279.31823,177.55163 L 277.57808,176.60146 z"
     id="path4935" />
  <path
     sodipodi:open="true"
     sodipodi:end="4.712389"
     sodipodi:start="1.5707963"
     transform="matrix(-1,0,0,1,555.42343,0.1148897)"
     d="M 277.83838,181.94701 A 1.8847517,2.8596227 0 1 1 277.83838,176.22776"
     sodipodi:ry="2.8596227"
     sodipodi:rx="1.8847517"
     sodipodi:cy="179.08739"
     sodipodi:cx="277.83838"
     id="path4928"
     style="opacity:1;fill:none;fill-opacity:1;fill-rule:evenodd;stroke:#000000;stroke-width:1;stroke-linecap:butt;stroke-linejoin:miter;stroke-miterlimit:4;stroke-dasharray:none;stroke-dashoffset:13.5;stroke-opacity:1"
     sodipodi:type="arc" />
  <path
     style="fill:none;fill-rule:evenodd;stroke:#000000;stroke-width:1px;stroke-linecap:butt;stroke-linejoin:miter;stroke-opacity:1;opacity:1"
     d="M 242.16452,242.46232 L 315.02066,261.98406 L 315.02066,173.64338 L 242.15303,154.52573"
     id="path4918" />
  <path
     style="fill:none;fill-rule:evenodd;stroke:#000000;stroke-width:1px;stroke-linecap:butt;stroke-linejoin:miter;stroke-opacity:1;opacity:1"
     d="M 315.01347,173.85557 L 380.9335,135.79663 L 380.9335,223.93147 L 315.12783,261.92439"
     id="path4920" />
  <path
     style="fill:none;fill-rule:evenodd;stroke:#000000;stroke-width:1px;stroke-linecap:butt;stroke-linejoin:miter;stroke-opacity:1;opacity:1"
     d="M 307.70194,116.43564 L 380.65851,135.98429"
     id="path4922" />
  <path
     style="fill:none;fill-rule:evenodd;stroke:#ff0000;stroke-width:1px;stroke-linecap:butt;stroke-linejoin:miter;stroke-opacity:1"
     d="M 276.10937,177.71483 L 306.39062,206.43359"
     id="path4930"
     sodipodi:nodetypes="cc" />
  <path
     style="fill:none;fill-rule:evenodd;stroke:#ff0000;stroke-width:1px;stroke-linecap:butt;stroke-linejoin:miter;stroke-opacity:1"
     d="M 275.92739,179.46551 L 308.38672,173.1875"
     id="path4933"
     sodipodi:nodetypes="cc" />
  <path
     sodipodi:type="arc"
     style="opacity:1;fill:none;fill-opacity:1;fill-rule:evenodd;stroke:#000000;stroke-width:1;stroke-linecap:butt;stroke-linejoin:miter;stroke-miterlimit:4;stroke-dasharray:none;stroke-dashoffset:13.50000000000000000;stroke-opacity:1"
     id="path4926"
     sodipodi:cx="277.83838"
     sodipodi:cy="179.08739"
     sodipodi:rx="1.8847517"
     sodipodi:ry="2.8596227"
     d="M 277.83838,181.94701 A 1.8847517,2.8596227 0 1 1 277.83838,176.22776"
     transform="translate(-0.1838235,0.1148897)"
     sodipodi:open="true"
     sodipodi:start="1.5707963"
     sodipodi:end="4.712389" />
</svg>
